<svg viewBox="0 0 12 10" xmlns="http://www.w3.org/2000/svg">
<path d="M11 1.50002H8.49998V1C8.49998 0.448499 8.05151 0 7.49998 0H4.49999C3.94848 0 3.49998 0.448475 3.49998 1V1.5H1C0.448475 1.50002 0 1.94849 0 2.5V4C0 4.55152 0.448475 5 1 5H5V4.74999C5 4.61181 5.11182 4.49999 5.25001 4.49999H6.75C6.88819 4.49999 7.00001 4.61181 7.00001 4.74999V5H11C11.5515 5 12 4.55152 12 4V2.5C12 1.94849 11.5515 1.50002 11 1.50002ZM7.49998 1.50002H4.49999V1H7.49998V1.50002Z" fill="white"/>
<path d="M11.8613 5.26978C11.7761 5.22755 11.6743 5.23732 11.5991 5.29444C11.4213 5.42897 11.2143 5.50001 10.9999 5.50001H6.99998V6.25C6.99998 6.38819 6.88816 6.50001 6.74998 6.50001H5.24998C5.1118 6.50001 4.99998 6.38819 4.99998 6.25V5.50001H1C0.785646 5.50001 0.578623 5.42897 0.400874 5.29444C0.325429 5.23683 0.223874 5.22705 0.138656 5.26978C0.0537186 5.31204 0 5.39869 0 5.49368V9.00001C0 9.55152 0.448475 10 1 10H11C11.5515 10 12 9.55154 12 9.00001V5.49368C12 5.39869 11.9462 5.31204 11.8613 5.26978Z" fill="white"/>
</svg>
